<svg xmlns="http://www.w3.org/2000/svg" width="108" height="108" viewBox="0 0 108 108">
<defs><linearGradient id="brand" x1="0" y1="0" x2="1" y2="1"><stop stop-color="#0879E7"/><stop offset="0.5" stop-color="#4160EC"/><stop offset="1" stop-color="#A625E4"/></linearGradient></defs>
<path fill="url(#brand)" d="M0 0H108V108H0Z"/>
<path fill="#FFFFFF" fill-rule="evenodd" d="M 31,48 H 38 C 42,48 44,43 48,39 C 52,34 54,29 54,24 C 59,23 64,28 64,33 C 64,38 62,41 61,44 H 73 C 79,44 82,47 82,51 C 82,54 80,56 79,57 C 82,59 82,63 79,65 C 81,68 80,71 77,73 C 77,77 73,79 68,79 H 33 C 29,79 27,76 27,72 V 52 C 27,50 28,48 31,48 Z M36.40127795527157 65.5649698593436Q37.08450479233227 65.5649698593436 37.43738019169329 65.28365706630944Q37.79025559105431 65.00234427327528 37.79025559105431 64.45378432685868Q37.79025559105431 63.912257200267916 37.43738019169329 63.62742799732083Q37.08450479233227 63.34259879437374 36.40127795527157 63.34259879437374H34.80207667731629V65.5649698593436ZM36.49888178913738 70.15740120562626Q37.36980830670927 70.15740120562626 37.809025559105436 69.81279303415941Q38.2482428115016 69.46818486269257 38.2482428115016 68.77193569993302Q38.2482428115016 68.08975217682519 37.812779552715654 67.74866041527127Q37.37731629392971 67.40756865371735 36.49888178913738 67.40756865371735H34.80207667731629V70.15740120562626ZM39.186741214057506 66.38077695914266Q40.11773162939297 66.63395847287342 40.62827476038339 67.31614199598124Q41.138817891373805 67.99832551908908 41.138817891373805 68.9899531145345Q41.138817891373805 70.50904219691895 40.0426517571885 71.25452109845948Q38.9464856230032 72.0 36.70910543130991 72.0H31.91150159744409V61.5H36.25111821086262Q38.58610223642172 61.5 39.63346645367412 62.161085063630274Q40.68083067092652 62.82217012726055 40.68083067092652 64.27796383121232Q40.68083067092652 65.04454119223041 40.2979233226837 65.58255190890824Q39.91501597444089 66.12056262558608 39.186741214057506 66.38077695914266ZM42.06980830670927 61.5H45.230670926517575L47.78338658146966 65.24146014735432L50.33610223642173 61.5H53.504472843450486L49.23242811501598 67.57635632953784V72.0H46.34185303514377V67.57635632953784ZM62.56661341853035 61.83054253181514V64.052913596785Q61.64313099041534 63.66610850636303 60.764696485623006 63.46918955123912Q59.88626198083067 63.272270596115206 59.105431309904155 63.272270596115206Q58.06932907348243 63.272270596115206 57.57380191693291 63.539517749497655Q57.07827476038339 63.806764902880104 57.07827476038339 64.36939048894843Q57.07827476038339 64.79135967849966 57.41238019169329 65.02695914266577Q57.746485623003196 65.26255860683189 58.62492012779553 65.43134628265238L59.85623003194888 65.66342933690557Q61.725718849840256 66.01507032819826 62.51405750798722 66.73241795043538Q63.30239616613419 67.44976557267248 63.30239616613419 68.77193569993302Q63.30239616613419 70.50904219691895 62.20247603833866 71.35649698593437Q61.10255591054313 72.20395177494977 58.8426517571885 72.20395177494977Q57.77651757188498 72.20395177494977 56.70287539936102 72.0140656396517Q55.62923322683706 71.82417950435365 54.5555910543131 71.45144005358338V69.16577361018085Q55.62923322683706 69.70026791694575 56.63154952076677 69.97103148024112Q57.633865814696485 70.2417950435365 58.56485623003195 70.2417950435365Q59.51086261980831 70.2417950435365 60.01389776357827 69.94641661085063Q60.51693290734824 69.65103817816477 60.51693290734824 69.10247823174817Q60.51693290734824 68.61018084393838 60.17531948881789 68.34293369055592Q59.83370607028754 68.07568653717348 58.81261980830671 67.86470194239786L57.69392971246006 67.63261888814468Q56.01214057507987 67.29504353650368 55.23506389776358 66.55659745478901Q54.457987220447286 65.81815137307434 54.457987220447286 64.56630944407233Q54.457987220447286 62.9979906229069 55.53913738019169 62.15405224380442Q56.6202875399361 61.31011386470195 58.64744408945687 61.31011386470195Q59.570926517571884 61.31011386470195 60.54696485623003 61.44022103148024Q61.523003194888176 61.57032819825854 62.56661341853035 61.83054253181514ZM70.9605431309904 63.272270596115206Q69.63913738019168 63.272270596115206 68.9108626198083 64.18653717347622Q68.18258785942491 65.10080375083724 68.18258785942491 66.76054922973879Q68.18258785942491 68.41326188881447 68.9108626198083 69.3275284661755Q69.63913738019168 70.2417950435365 70.9605431309904 70.2417950435365Q72.28945686900957 70.2417950435365 73.01773162939296 69.3275284661755Q73.74600638977634 68.41326188881447 73.74600638977634 66.76054922973879Q73.74600638977634 65.10080375083724 73.01773162939296 64.18653717347622Q72.28945686900957 63.272270596115206 70.9605431309904 63.272270596115206ZM70.9605431309904 61.31011386470195Q73.66341853035144 61.31011386470195 75.19504792332268 62.758874748827864Q76.72667731629392 64.20763563295378 76.72667731629392 66.76054922973879Q76.72667731629392 69.30643000669792 75.19504792332268 70.75519089082385Q73.66341853035144 72.20395177494977 70.9605431309904 72.20395177494977Q68.26517571884983 72.20395177494977 66.72979233226836 70.75519089082385Q65.19440894568689 69.30643000669792 65.19440894568689 66.76054922973879Q65.19440894568689 64.20763563295378 66.72979233226836 62.758874748827864Q68.26517571884983 61.31011386470195 70.9605431309904 61.31011386470195Z"/>
</svg>